<mxfile host="65bd71144e">
    <diagram id="iUWfuSEUR_VwGOzYIaKV" name="Page-1">
        <mxGraphModel dx="2141" dy="916" grid="1" gridSize="10" guides="1" tooltips="1" connect="1" arrows="1" fold="1" page="1" pageScale="1" pageWidth="850" pageHeight="1100" math="0" shadow="0">
            <root>
                <mxCell id="0"/>
                <mxCell id="1" parent="0"/>
                <mxCell id="2" value="Languages" style="swimlane;whiteSpace=wrap;html=1;" parent="1" vertex="1">
                    <mxGeometry x="-110" y="40" width="130" height="120" as="geometry"/>
                </mxCell>
                <mxCell id="3" value="&lt;ul style=&quot;font-size: 14px;&quot;&gt;&lt;li style=&quot;font-size: 14px;&quot;&gt;Id&lt;/li&gt;&lt;li style=&quot;font-size: 14px;&quot;&gt;Name&lt;/li&gt;&lt;li style=&quot;font-size: 14px;&quot;&gt;IsFrontend&amp;nbsp;&lt;/li&gt;&lt;/ul&gt;" style="text;html=1;align=left;verticalAlign=middle;resizable=0;points=[];autosize=1;strokeColor=none;fillColor=none;fontSize=14;" parent="2" vertex="1">
                    <mxGeometry x="-10" y="10" width="130" height="110" as="geometry"/>
                </mxCell>
                <mxCell id="4" value="Frameworks" style="swimlane;whiteSpace=wrap;html=1;" parent="1" vertex="1">
                    <mxGeometry x="110" y="40" width="150" height="120" as="geometry"/>
                </mxCell>
                <mxCell id="5" value="&lt;ul style=&quot;font-size: 14px;&quot;&gt;&lt;li style=&quot;font-size: 14px;&quot;&gt;Id&lt;/li&gt;&lt;li style=&quot;font-size: 14px;&quot;&gt;Name&lt;/li&gt;&lt;li style=&quot;font-size: 14px;&quot;&gt;LanguageId&lt;/li&gt;&lt;/ul&gt;" style="text;html=1;align=left;verticalAlign=middle;resizable=0;points=[];autosize=1;strokeColor=none;fillColor=none;fontSize=14;" parent="4" vertex="1">
                    <mxGeometry x="-10" y="5" width="140" height="110" as="geometry"/>
                </mxCell>
                <mxCell id="8" value="" style="endArrow=classic;startArrow=classic;html=1;entryX=0.308;entryY=0.8;entryDx=0;entryDy=0;entryPerimeter=0;fillColor=#008a00;strokeColor=#005700;" edge="1" parent="4" target="5">
                    <mxGeometry width="50" height="50" relative="1" as="geometry">
                        <mxPoint x="-210" y="40" as="sourcePoint"/>
                        <mxPoint x="40" y="120" as="targetPoint"/>
                        <Array as="points">
                            <mxPoint x="-260" y="40"/>
                            <mxPoint x="-260" y="160"/>
                            <mxPoint x="-120" y="160"/>
                            <mxPoint x="20" y="160"/>
                        </Array>
                    </mxGeometry>
                </mxCell>
                <mxCell id="9" value="Projects" style="swimlane;whiteSpace=wrap;html=1;" vertex="1" parent="1">
                    <mxGeometry x="370" y="40" width="200" height="200" as="geometry"/>
                </mxCell>
                <mxCell id="10" value="&lt;ul style=&quot;font-size: 14px;&quot;&gt;&lt;li style=&quot;font-size: 14px;&quot;&gt;Id&lt;/li&gt;&lt;li style=&quot;font-size: 14px;&quot;&gt;Name&lt;/li&gt;&lt;li style=&quot;font-size: 14px;&quot;&gt;Language&lt;/li&gt;&lt;li style=&quot;font-size: 14px;&quot;&gt;Framework&lt;/li&gt;&lt;li style=&quot;font-size: 14px;&quot;&gt;Release_date&lt;/li&gt;&lt;li style=&quot;font-size: 14px;&quot;&gt;Repository_link&lt;/li&gt;&lt;/ul&gt;" style="text;html=1;align=left;verticalAlign=middle;resizable=0;points=[];autosize=1;strokeColor=none;fillColor=none;fontSize=14;" vertex="1" parent="9">
                    <mxGeometry y="10" width="160" height="180" as="geometry"/>
                </mxCell>
                <mxCell id="11" value="" style="endArrow=classic;startArrow=classic;html=1;entryX=0.2;entryY=0.438;entryDx=0;entryDy=0;entryPerimeter=0;" edge="1" parent="1" target="10">
                    <mxGeometry width="50" height="50" relative="1" as="geometry">
                        <mxPoint x="-100" y="80" as="sourcePoint"/>
                        <mxPoint x="290" y="310" as="targetPoint"/>
                        <Array as="points">
                            <mxPoint x="-190" y="80"/>
                            <mxPoint x="-190" y="300"/>
                            <mxPoint x="310" y="300"/>
                            <mxPoint x="310" y="130"/>
                        </Array>
                    </mxGeometry>
                </mxCell>
                <mxCell id="12" value="" style="endArrow=classic;startArrow=classic;html=1;exitX=0.231;exitY=0.3;exitDx=0;exitDy=0;exitPerimeter=0;fillColor=#0050ef;strokeColor=#001DBC;" edge="1" parent="1" source="5">
                    <mxGeometry width="50" height="50" relative="1" as="geometry">
                        <mxPoint x="70" y="30" as="sourcePoint"/>
                        <mxPoint x="400" y="150" as="targetPoint"/>
                        <Array as="points">
                            <mxPoint x="70" y="80"/>
                            <mxPoint x="70" y="220"/>
                            <mxPoint x="280" y="220"/>
                            <mxPoint x="280" y="150"/>
                        </Array>
                    </mxGeometry>
                </mxCell>
                <mxCell id="17" value="Wording" style="swimlane;whiteSpace=wrap;html=1;" vertex="1" parent="1">
                    <mxGeometry x="-495" y="40" width="135" height="160" as="geometry"/>
                </mxCell>
                <mxCell id="18" value="&lt;ul style=&quot;font-size: 14px;&quot;&gt;&lt;li style=&quot;font-size: 14px;&quot;&gt;Id&lt;/li&gt;&lt;li style=&quot;font-size: 14px;&quot;&gt;Key&lt;/li&gt;&lt;li style=&quot;font-size: 14px;&quot;&gt;lang_pl&lt;/li&gt;&lt;li style=&quot;font-size: 14px;&quot;&gt;lang_en&lt;/li&gt;&lt;/ul&gt;" style="text;html=1;align=left;verticalAlign=middle;resizable=0;points=[];autosize=1;strokeColor=none;fillColor=none;fontSize=14;" vertex="1" parent="17">
                    <mxGeometry y="15" width="110" height="130" as="geometry"/>
                </mxCell>
            </root>
        </mxGraphModel>
    </diagram>
</mxfile>